<svg width="46" height="38" viewBox="0 0 56 48" fill="none" xmlns="http://www.w3.org/2000/svg">
<ellipse cx="27.8268" cy="23.8344" rx="25.1732" ry="21.0298" fill="#18154B" stroke="#2DCE94" stroke-width="2"/>
<g clip-path="url(#clip0_275_451)">
<rect x="14.6926" y="12.862" width="26.2677" height="21.9441" fill="#1A174C"/>
<path d="M21.7127 27.4914L32.813 18.2182L31.2654 16.9253L20.1651 26.1986V27.4914H21.7127ZM22.62 29.3201H17.9761V25.4406L30.4916 14.9851C30.6968 14.8137 30.9751 14.7174 31.2654 14.7174C31.5556 14.7174 31.8339 14.8137 32.0392 14.9851L35.1355 17.5718C35.3407 17.7432 35.4559 17.9758 35.4559 18.2182C35.4559 18.4607 35.3407 18.6932 35.1355 18.8647L22.62 29.3201V29.3201ZM17.9761 31.1488H37.6769V32.9775H17.9761V31.1488Z" fill="#FBF5F5"/>
</g>
<rect x="14.6926" y="12.862" width="26.2677" height="21.9441" stroke="#1A174C"/>
<defs>
<clipPath id="clip0_275_451">
<rect x="14.6926" y="12.862" width="26.2677" height="21.9441" fill="white"/>
</clipPath>
</defs>
</svg>