<svg viewBox="0 0 51 51" fill="none" xmlns="http://www.w3.org/2000/svg">
<g filter="url(#filter0_b_771_180)">
<circle cx="25.5" cy="25.5" r="25.5" fill="#EEE2D9" fill-opacity="0.15"/>
</g>
<path d="M36.8301 32.1306L35.2467 29.8527C35.0306 29.5431 34.9143 29.1747 34.9134 28.7971V22.2597C34.9134 19.8039 33.9378 17.4487 32.2013 15.7121C30.4647 13.9756 28.1095 13 25.6536 13C23.1978 13 20.8426 13.9756 19.106 15.7121C17.3695 17.4487 16.3939 19.8039 16.3939 22.2597V28.7971C16.393 29.1747 16.2767 29.5431 16.0606 29.8527L14.4771 32.1306C14.2374 32.3963 14.0797 32.7257 14.0232 33.079C13.9667 33.4324 14.0138 33.7945 14.1588 34.1217C14.3038 34.4488 14.5404 34.727 14.8401 34.9225C15.1398 35.118 15.4897 35.2225 15.8476 35.2234H21.1164C21.3289 36.27 21.8967 37.2109 22.7236 37.8868C23.5505 38.5627 24.5857 38.9319 25.6536 38.9319C26.7216 38.9319 27.7568 38.5627 28.5837 37.8868C29.4106 37.2109 29.9784 36.27 30.1909 35.2234H35.4597C35.8175 35.2225 36.1675 35.118 36.4672 34.9225C36.7669 34.727 37.0035 34.4488 37.1485 34.1217C37.2935 33.7945 37.3405 33.4324 37.2841 33.079C37.2276 32.7257 37.0699 32.3963 36.8301 32.1306ZM25.6536 37.0753C25.0805 37.0737 24.5219 36.8949 24.0544 36.5633C23.5869 36.2318 23.2334 35.7637 23.0424 35.2234H28.2649C28.0738 35.7637 27.7203 36.2318 27.2529 36.5633C26.7854 36.8949 26.2268 37.0737 25.6536 37.0753ZM15.8476 33.3714C15.8894 33.3326 15.9267 33.2891 15.9587 33.2418L17.5792 30.9083C18.0114 30.289 18.2441 29.5524 18.2459 28.7971V22.2597C18.2459 20.2951 19.0263 18.4109 20.4155 17.0216C21.8048 15.6324 23.689 14.8519 25.6536 14.8519C27.6183 14.8519 29.5025 15.6324 30.8917 17.0216C32.281 18.4109 33.0614 20.2951 33.0614 22.2597V28.7971C33.0632 29.5524 33.2958 30.289 33.7281 30.9083L35.3486 33.2418C35.3806 33.2891 35.4178 33.3326 35.4597 33.3714H15.8476Z" fill="white"/>
<defs>
<filter id="filter0_b_771_180" x="-4" y="-4" width="59" height="59" filterUnits="userSpaceOnUse" color-interpolation-filters="sRGB">
<feFlood flood-opacity="0" result="BackgroundImageFix"/>
<feGaussianBlur in="BackgroundImageFix" stdDeviation="2"/>
<feComposite in2="SourceAlpha" operator="in" result="effect1_backgroundBlur_771_180"/>
<feBlend mode="normal" in="SourceGraphic" in2="effect1_backgroundBlur_771_180" result="shape"/>
</filter>
</defs>
</svg>
