<svg width="120" height="119" viewBox="0 0 67 66" fill="none" xmlns="http://www.w3.org/2000/svg">
<path d="M36.1278 60.8118C35.9191 60.8105 35.7192 60.7279 35.571 60.5817C35.499 60.5078 35.442 60.4208 35.4029 60.3255C35.361 60.2317 35.3395 60.1301 35.3399 60.0274C35.3391 59.923 35.3606 59.8196 35.4029 59.7241C35.4201 59.6752 35.4449 59.6293 35.4764 59.5881C35.5023 59.5455 35.5341 59.5068 35.571 59.4731C35.8831 59.1782 36.3724 59.1782 36.6845 59.4731C36.9917 59.7793 36.9917 60.2755 36.6845 60.5817C36.5369 60.7289 36.3366 60.8116 36.1278 60.8118Z" fill="#DEE4F5"/>
<path fill-rule="evenodd" clip-rule="evenodd" d="M9.15638 60.0266C9.15638 59.5934 9.50913 59.2422 9.94427 59.2422C10.3794 59.2422 10.7322 59.5934 10.7322 60.0266C10.7322 60.4598 10.3794 60.811 9.94427 60.811C9.73301 60.8138 9.52936 60.7325 9.37849 60.5853C9.22762 60.438 9.14201 60.2369 9.14062 60.0266H9.15638ZM14.3134 59.2422C13.8783 59.2422 13.5255 59.5934 13.5255 60.0266H13.5098C13.5097 60.2374 13.5949 60.4393 13.7461 60.5869C13.8973 60.7344 14.1017 60.8152 14.3134 60.811C14.7485 60.811 15.1013 60.4598 15.1013 60.0266C15.1013 59.5934 14.7485 59.2422 14.3134 59.2422ZM17.8909 60.0266C17.8909 59.5934 18.2436 59.2422 18.6788 59.2422C19.1139 59.2422 19.4667 59.5934 19.4667 60.0266C19.4667 60.4598 19.1139 60.811 18.6788 60.811C18.4644 60.8195 18.2558 60.7407 18.1012 60.5926C17.9465 60.4446 17.8592 60.2402 17.8594 60.0266H17.8909ZM23.0434 59.2422C22.6083 59.2422 22.2555 59.5934 22.2555 60.0266H22.2397C22.2397 60.2374 22.3249 60.4393 22.4761 60.5869C22.6272 60.7344 22.8317 60.8152 23.0434 60.811C23.4785 60.811 23.8313 60.4598 23.8313 60.0266C23.8313 59.5934 23.4785 59.2422 23.0434 59.2422ZM26.6261 60.0266C26.6261 59.5934 26.9789 59.2422 27.414 59.2422C27.8491 59.2422 28.2019 59.5934 28.2019 60.0266C28.199 60.4586 27.8479 60.8081 27.414 60.811C27.2023 60.8152 26.9978 60.7344 26.8467 60.5869C26.6955 60.4393 26.6103 60.2374 26.6104 60.0266H26.6261ZM30.9907 60.0266C30.9907 59.5934 31.3435 59.2422 31.7786 59.2422C32.2137 59.2422 32.5665 59.5934 32.5665 60.0266C32.5665 60.4598 32.2137 60.811 31.7786 60.811C31.3435 60.811 30.9907 60.4598 30.9907 60.0266ZM5.57855 59.2423C5.14341 59.2423 4.79066 59.5935 4.79066 60.0267H4.7749C4.77486 60.2375 4.86003 60.4394 5.01121 60.587C5.16239 60.7346 5.36687 60.8153 5.57855 60.8111C6.01368 60.8111 6.36643 60.4599 6.36643 60.0267C6.36643 59.5935 6.01368 59.2423 5.57855 59.2423Z" fill="#DEE4F5"/>
<path d="M1.19758 60.8113C0.988686 60.8111 0.788419 60.7284 0.640803 60.5812C0.491506 60.4353 0.408103 60.2352 0.40969 60.0269C0.409874 59.819 0.493004 59.6196 0.640803 59.4726C0.676167 59.434 0.716839 59.4005 0.761612 59.3733C0.803553 59.3427 0.849505 59.3181 0.898179 59.3C0.945273 59.2789 0.994608 59.2631 1.04525 59.253C1.14619 59.2373 1.24896 59.2373 1.3499 59.253C1.40054 59.2631 1.44988 59.2789 1.49697 59.3C1.54514 59.3192 1.59096 59.3438 1.63354 59.3733C1.67732 59.4019 1.71783 59.4352 1.75435 59.4726C1.90215 59.6196 1.98528 59.819 1.98546 60.0269C1.98414 60.2347 1.90118 60.4336 1.75435 60.5812C1.60673 60.7284 1.40647 60.8111 1.19758 60.8113Z" fill="#DEE4F5"/>
<path fill-rule="evenodd" clip-rule="evenodd" d="M1.19755 30.2354C0.762416 30.2354 0.409668 30.5865 0.409668 31.0198C0.409668 31.453 0.762416 31.8042 1.19755 31.8042C1.63269 31.8042 1.98544 31.453 1.98544 31.0198C1.98544 30.5865 1.63269 30.2354 1.19755 30.2354ZM0.410156 35.1614C0.410156 34.7281 0.762905 34.377 1.19804 34.377C1.63318 34.377 1.98593 34.7281 1.98593 35.1614C1.98593 35.5946 1.63318 35.9458 1.19804 35.9458C0.762905 35.9458 0.410156 35.5946 0.410156 35.1614ZM1.19804 38.5234C0.762905 38.5234 0.410156 38.8746 0.410156 39.3078C0.410156 39.7411 0.762905 40.0922 1.19804 40.0922C1.63318 40.0922 1.98593 39.7411 1.98593 39.3078C1.98593 38.8746 1.63318 38.5234 1.19804 38.5234ZM0.410156 43.4494C0.410156 43.0162 0.762905 42.665 1.19804 42.665C1.63318 42.665 1.98593 43.0162 1.98593 43.4494C1.98593 43.8827 1.63318 44.2338 1.19804 44.2338C0.762905 44.2338 0.410156 43.8827 0.410156 43.4494ZM1.19804 46.8125C0.762905 46.8125 0.410156 47.1637 0.410156 47.5969V47.6074C0.410156 48.0406 0.762905 48.3918 1.19804 48.3918C1.63318 48.3918 1.98593 48.0406 1.98593 47.6074C1.98874 47.3975 1.90697 47.1953 1.75891 47.0459C1.61085 46.8966 1.40883 46.8125 1.19804 46.8125ZM0.410156 51.7385C0.410156 51.3053 0.762905 50.9541 1.19804 50.9541C1.63318 50.9541 1.98593 51.3053 1.98593 51.7385C1.98593 52.1717 1.63318 52.5229 1.19804 52.5229C0.762905 52.5229 0.410156 52.1717 0.410156 51.7385ZM0.410156 55.8801C0.410156 55.4469 0.762905 55.0957 1.19804 55.0957C1.63318 55.0957 1.98593 55.4469 1.98593 55.8801C1.98593 56.3133 1.63318 56.6645 1.19804 56.6645C0.762905 56.6645 0.410156 56.3133 0.410156 55.8801Z" fill="#DEE4F5"/>
<path d="M1.19755 27.6625C0.988664 27.6623 0.788397 27.5796 0.640781 27.4324C0.493945 27.2848 0.410987 27.0859 0.409668 26.8781C0.409852 26.6701 0.492982 26.4708 0.640781 26.3238C0.676145 26.2852 0.716817 26.2517 0.76159 26.2244C0.805309 26.2013 0.851012 26.182 0.898157 26.1669L1.05048 26.1094C1.15095 26.0885 1.25466 26.0885 1.35513 26.1094L1.5022 26.1512L1.63877 26.2244C1.68255 26.2531 1.72306 26.2864 1.75958 26.3238C1.90738 26.4708 1.99051 26.6701 1.99069 26.8781C1.99069 27.3113 1.63794 27.6625 1.20281 27.6625H1.19755Z" fill="#DEE4F5"/>
<path fill-rule="evenodd" clip-rule="evenodd" d="M23.0434 26.0938C22.6083 26.0938 22.2555 26.4449 22.2555 26.8782H22.2397C22.2397 27.0889 22.3249 27.2909 22.4761 27.4384C22.6272 27.586 22.8317 27.6668 23.0434 27.6626C23.4785 27.6626 23.8313 27.3114 23.8313 26.8782C23.8313 26.4449 23.4785 26.0938 23.0434 26.0938ZM30.9907 26.8782C30.9907 26.4449 31.3435 26.0938 31.7786 26.0938C32.2137 26.0938 32.5665 26.4449 32.5665 26.8782C32.5665 27.3114 32.2137 27.6626 31.7786 27.6626C31.3435 27.6626 30.9907 27.3114 30.9907 26.8782ZM26.6261 26.8782C26.6261 26.445 26.9789 26.0938 27.414 26.0938C27.8491 26.0938 28.2019 26.445 28.2019 26.8782C28.2019 27.3114 27.8491 27.6626 27.414 27.6626C27.2023 27.6668 26.9978 27.5861 26.8467 27.4385C26.6955 27.2909 26.6103 27.089 26.6104 26.8782H26.6261ZM17.8909 26.8782C17.8909 26.445 18.2436 26.0938 18.6788 26.0938C19.1139 26.0938 19.4667 26.445 19.4667 26.8782C19.4667 27.3114 19.1139 27.6626 18.6788 27.6626C18.4644 27.6712 18.2558 27.5923 18.1012 27.4443C17.9465 27.2962 17.8592 27.0918 17.8594 26.8782H17.8909ZM14.3134 26.0938C13.8783 26.0938 13.5255 26.445 13.5255 26.8782H13.5098C13.5097 27.089 13.5949 27.2909 13.7461 27.4385C13.8973 27.5861 14.1017 27.6668 14.3134 27.6626C14.7485 27.6626 15.1013 27.3114 15.1013 26.8782C15.1013 26.445 14.7485 26.0938 14.3134 26.0938ZM9.15638 26.8782C9.15638 26.445 9.50913 26.0938 9.94427 26.0938C10.3794 26.0938 10.7322 26.445 10.7322 26.8782C10.7322 27.3114 10.3794 27.6626 9.94427 27.6626C9.73259 27.6668 9.52812 27.5861 9.37693 27.4385C9.22575 27.2909 9.14058 27.089 9.14062 26.8782H9.15638ZM5.57855 26.0938C5.14341 26.0938 4.79066 26.445 4.79066 26.8782H4.7749C4.77486 27.089 4.86003 27.2909 5.01121 27.4385C5.16239 27.5861 5.36687 27.6668 5.57855 27.6626C6.01368 27.6626 6.36643 27.3114 6.36643 26.8782C6.36643 26.445 6.01368 26.0938 5.57855 26.0938Z" fill="#DEE4F5"/>
<path d="M36.1267 27.6627C35.8622 27.6648 35.6146 27.5337 35.4684 27.3143C35.3221 27.0949 35.2971 26.8168 35.4019 26.575C35.4201 26.5266 35.4449 26.4808 35.4754 26.439C35.5024 26.3972 35.5341 26.3586 35.57 26.324C35.7578 26.1393 36.0252 26.059 36.2843 26.1096L36.4314 26.1514C36.4769 26.1726 36.5207 26.1971 36.5627 26.2246C36.6075 26.2519 36.6481 26.2853 36.6835 26.324C36.721 26.3585 36.7545 26.3971 36.7833 26.439C36.7833 26.4861 36.8358 26.5279 36.8568 26.575C36.8757 26.6223 36.8898 26.6713 36.8989 26.7214C36.9515 26.9794 36.8706 27.2465 36.6835 27.4326C36.6481 27.4697 36.6074 27.5014 36.5627 27.5267C36.5219 27.5561 36.4779 27.5807 36.4314 27.5999C36.3354 27.6421 36.2316 27.6635 36.1267 27.6627Z" fill="#DEE4F5"/>
<path fill-rule="evenodd" clip-rule="evenodd" d="M36.1268 30.2354C35.6916 30.2354 35.3389 30.5865 35.3389 31.0198C35.3389 31.453 35.6916 31.8042 36.1268 31.8042C36.5619 31.8042 36.9146 31.453 36.9146 31.0198C36.9146 30.5865 36.5619 30.2354 36.1268 30.2354ZM35.3394 35.1614C35.3394 34.7282 35.6921 34.377 36.1272 34.377C36.5624 34.377 36.9151 34.7282 36.9151 35.1614C36.9151 35.5946 36.5624 35.9458 36.1272 35.9458C35.6921 35.9458 35.3394 35.5946 35.3394 35.1614ZM36.1272 38.5234C35.6921 38.5234 35.3394 38.8746 35.3394 39.3078C35.3394 39.7411 35.6921 40.0922 36.1272 40.0922C36.5624 40.0922 36.9151 39.7411 36.9151 39.3078C36.9151 38.8746 36.5624 38.5234 36.1272 38.5234ZM35.3394 43.4494C35.3394 43.0162 35.6921 42.665 36.1272 42.665C36.5624 42.665 36.9151 43.0162 36.9151 43.4494C36.9151 43.8827 36.5624 44.2338 36.1272 44.2338C35.6921 44.2338 35.3394 43.8827 35.3394 43.4494ZM36.1272 46.8066C35.6913 46.8095 35.3393 47.1622 35.3394 47.5963V47.6067C35.3422 48.0379 35.6941 48.3859 36.1272 48.3859C36.5603 48.3859 36.9122 48.0379 36.9151 47.6067C36.9179 47.3964 36.8363 47.1937 36.6884 47.0435C36.5405 46.8933 36.3385 46.808 36.1272 46.8066ZM35.3394 51.7385C35.3394 51.3053 35.6921 50.9541 36.1272 50.9541C36.5624 50.9541 36.9151 51.3053 36.9151 51.7385C36.9151 52.1717 36.5624 52.5229 36.1272 52.5229C35.6921 52.5229 35.3394 52.1717 35.3394 51.7385ZM35.3394 55.8802C35.3394 55.447 35.6921 55.0958 36.1272 55.0958C36.5624 55.0958 36.9151 55.447 36.9151 55.8802C36.9151 56.3134 36.5624 56.6646 36.1272 56.6646C35.6921 56.6646 35.3394 56.3134 35.3394 55.8802Z" fill="#DEE4F5"/>
<path d="M9.26562 6.28516H57.2006V52.0682H9.26562V6.28516Z" fill="white"/>
<path fill-rule="evenodd" clip-rule="evenodd" d="M51.5593 52.5126H57.647C57.648 52.4258 57.649 52.3386 57.65 52.2511C57.66 51.3789 57.6704 50.4733 57.6418 49.5894C57.626 49.103 57.626 48.6206 57.626 48.1355C57.626 47.6505 57.626 47.1629 57.6103 46.6661C57.6014 46.2502 57.5904 45.8334 57.5795 45.4171C57.5385 43.8605 57.4978 42.3128 57.5682 40.8563C57.6261 39.6609 57.6068 38.4085 57.5875 37.1517C57.5769 36.4676 57.5664 35.7823 57.5682 35.104C57.5735 33.1796 57.6208 31.2814 57.7048 29.3883C57.7547 28.425 57.7547 27.4598 57.7048 26.4965C57.6256 25.5294 57.6063 24.5584 57.647 23.589C57.7415 22.2387 57.7245 20.8506 57.7076 19.4616C57.7009 18.9194 57.6943 18.377 57.6943 17.8367C57.6988 17.0084 57.754 16.1917 57.8094 15.3699C57.8184 15.2371 57.8274 15.1042 57.8361 14.971C57.8992 14.0141 57.8992 13.0519 57.8992 12.0846V12.0844L57.8414 9.18733L57.8099 7.74403C57.8122 7.52605 57.82 7.30807 57.8278 7.0896C57.8372 6.82589 57.8466 6.56148 57.8466 6.2955C57.8282 5.97793 57.5722 5.72532 57.2531 5.70981H57.2111C55.7366 5.62096 54.2593 5.66909 52.7834 5.71716C52.2613 5.73417 51.7394 5.75117 51.2179 5.7621C50.5531 5.77604 49.8878 5.79751 49.2222 5.81899C47.8895 5.86201 46.5559 5.90505 45.2247 5.88761C44.4266 5.87715 43.6293 5.8483 42.8318 5.81945C41.635 5.77614 40.4378 5.73281 39.2368 5.75164C38.5716 5.76207 37.9071 5.77077 37.2429 5.77946C35.9088 5.79691 34.5762 5.81435 33.2436 5.84577C33.0212 5.85102 32.7989 5.85619 32.5765 5.86137C30.8028 5.90268 29.0287 5.94399 27.2504 6.01834L24.2564 6.11247C23.5911 6.1299 22.9258 6.12409 22.2605 6.11828C21.9278 6.11538 21.5951 6.11247 21.2625 6.11247C19.2613 6.05495 17.2653 6.05495 15.2693 6.05495C14.6042 6.05495 13.9385 6.04972 13.2725 6.04449C11.9401 6.03403 10.607 6.02357 9.27612 6.05495C9.11862 6.0578 8.99245 6.18574 8.99248 6.34256C9.0345 8.25128 9.07127 10.16 9.0345 12.0687C9.01854 12.8972 8.97981 13.7248 8.9411 14.5522C8.89062 15.6309 8.84015 16.7094 8.84015 17.7896C8.83694 18.3753 8.87111 18.9572 8.90533 19.5398C8.92702 19.9092 8.94874 20.2788 8.96096 20.6501C8.98765 21.4604 8.95031 22.2633 8.91272 23.0713C8.90592 23.2176 8.89912 23.3639 8.89268 23.5105C8.8781 23.8426 8.85783 24.1746 8.83757 24.5064C8.79944 25.131 8.76136 25.7547 8.76136 26.3762V29.2367C8.77589 31.3451 8.74864 33.4551 8.72138 35.5658C8.69936 37.2715 8.67732 38.9776 8.67732 40.6838C8.67732 40.8424 8.67674 41.001 8.67616 41.1596C8.67499 41.4769 8.67382 41.7941 8.67732 42.1114C8.68083 42.4295 8.70782 42.75 8.73475 43.0697C8.74809 43.2282 8.76142 43.3865 8.77187 43.5442C8.78931 44.4993 8.74896 45.4545 8.65106 46.4047C8.58058 47.5688 8.62929 48.731 8.67802 49.8936C8.70918 50.6372 8.74035 51.381 8.74035 52.1256C8.74035 52.4144 8.97552 52.6485 9.26561 52.6485H12.2858H13.7986L15.3113 52.6904C17.3388 52.7531 19.3611 52.7897 21.3938 52.8263C22.0451 52.8196 22.6942 52.7932 23.3411 52.7669C23.6959 52.7525 24.0501 52.7381 24.4035 52.727C25.4015 52.6956 26.4047 52.6747 27.4237 52.6956C27.8938 52.7052 28.365 52.7216 28.8363 52.7379C29.3866 52.757 29.9371 52.776 30.486 52.7845C31.0495 52.7932 31.6066 52.7763 32.1618 52.7594C32.6104 52.7458 33.0578 52.7322 33.5062 52.7322L39.4836 52.5596L42.4671 52.4812C43.2421 52.4771 44.0297 52.5074 44.8323 52.5383C45.0686 52.5474 45.3062 52.5565 45.5451 52.5649H47.0736C47.3271 52.5649 47.5739 52.5516 47.8194 52.5385C48.0623 52.5255 48.304 52.5126 48.5496 52.5126C49.1968 52.4917 49.8697 52.4986 50.545 52.5056C50.8835 52.5091 51.2226 52.5126 51.5593 52.5126ZM56.7542 48.7842V51.6237C55.9166 51.6282 55.0751 51.6298 54.2372 51.6314C53.1152 51.6336 51.9996 51.6357 50.9081 51.6447H47.9352C47.5925 51.6447 47.2523 51.6405 46.915 51.6364C46.2492 51.6283 45.595 51.6204 44.9569 51.6447C44.7393 51.653 44.5217 51.662 44.3037 51.6712C43.5589 51.7023 42.8097 51.7336 42.0418 51.7336L39.0478 51.6865L33.0599 51.5819H30.0869L27.1507 51.6813C26.1738 51.7179 25.1758 51.7179 24.183 51.7179L21.2048 51.6865C20.4708 51.6884 19.7365 51.6913 19.0022 51.6941C15.9186 51.706 12.8325 51.7179 9.74629 51.6635C9.76121 51.0638 9.79161 50.4645 9.822 49.8653C9.88103 48.7017 9.94004 47.5386 9.88553 46.3735C9.80068 45.4225 9.77612 44.4671 9.812 43.513C9.82593 43.3552 9.8445 43.1968 9.86308 43.0381C9.90052 42.7186 9.93806 42.3982 9.93806 42.0802V40.6526L9.98008 34.9003V32.0398L10.0536 29.216C10.0586 28.9106 10.0674 28.6058 10.0762 28.3014C10.0949 27.6516 10.1135 27.0036 10.0956 26.3555C10.085 25.3976 10.0218 24.4409 9.90654 23.4898C9.89954 23.4105 9.89224 23.3312 9.88495 23.2519C9.84847 22.8553 9.812 22.4587 9.812 22.0622C9.7805 21.5851 9.7805 21.1064 9.812 20.6293C9.84102 20.3007 9.88132 19.972 9.92164 19.6431C9.99809 19.0196 10.0746 18.3954 10.0746 17.7689C10.0714 16.6097 9.98882 15.4621 9.9056 14.3061C9.85179 13.5587 9.79773 12.8078 9.76472 12.048C9.70011 10.5604 9.769 9.08831 9.83772 7.61978C9.84914 7.37577 9.86056 7.13186 9.87135 6.888C13.675 6.92538 17.4743 6.8419 21.2784 6.68265C23.2746 6.59724 25.2743 6.63216 27.2663 6.78724C28.5525 6.8679 29.8365 6.89024 31.1198 6.91257C31.8332 6.92498 32.5463 6.93739 33.2595 6.95981C34.8016 7.00829 36.3437 7.00371 37.8883 6.99911C38.3429 6.99776 38.7976 6.99641 39.2527 6.99641C39.7516 7.02256 40.2506 7.0121 40.7496 6.99641C41.2486 6.98072 41.7476 6.96504 42.2466 6.92843C42.5674 6.91162 42.8882 6.88995 43.209 6.86828C43.8862 6.82253 44.5634 6.77678 45.2406 6.77678C47.1265 6.72497 49.0112 6.78025 50.8959 6.83553C52.8063 6.89156 54.7167 6.94759 56.6282 6.89207V7.69192L56.5861 9.10384L56.4968 11.9277C56.4811 12.869 56.4811 13.8103 56.5441 14.762L56.6282 16.1896V17.612C56.6282 18.0872 56.5977 18.5572 56.5674 19.0252C56.5373 19.4893 56.5073 19.9515 56.5073 20.4149C56.4833 21.3658 56.5113 22.3172 56.5914 23.2649C56.6422 24.1985 56.6106 25.1346 56.4968 26.0626C56.4283 26.9975 56.4283 27.936 56.4968 28.8708C56.5966 30.8057 56.6912 32.7405 56.6912 34.6231L56.6334 37.4156C56.6229 38.3516 56.6702 39.3191 56.7227 40.297C56.8308 41.9883 56.7998 43.5873 56.7689 45.1797C56.7638 45.4435 56.7587 45.707 56.7542 45.9708V48.7842ZM56.6282 6.89207C56.8277 6.88628 57.0273 6.87926 57.2269 6.87091L56.6282 6.26953V6.89207ZM9.87135 6.888C9.88009 6.69054 9.88843 6.49311 9.89604 6.29568L9.29199 6.88137C9.48512 6.88389 9.67824 6.8861 9.87135 6.888ZM9.74629 51.6635C9.59661 51.6609 9.44693 51.6581 9.29724 51.6551L9.73846 52.0944C9.74004 51.9507 9.74272 51.8071 9.74629 51.6635Z" fill="#DEE4F5"/>
<g opacity="0.5">
<path d="M13.605 10.4258H52.8679V47.9255H13.605V10.4258Z" fill="#DEE4F5"/>
<path fill-rule="evenodd" clip-rule="evenodd" d="M48.1925 48.2241H53.1614C53.1595 47.6313 53.1619 47.0341 53.1643 46.4345C53.1685 45.4313 53.1726 44.4212 53.1562 43.4131C53.1505 43.0643 53.1433 42.7152 53.1362 42.3669C53.1103 41.107 53.0846 39.857 53.1299 38.6649C53.1668 37.6935 53.1544 36.6859 53.142 35.6748C53.135 35.1018 53.128 34.5278 53.1299 33.9585C53.1351 32.3844 53.1667 30.847 53.2192 29.2782C53.2192 29.0103 53.2227 28.746 53.2262 28.4828C53.2332 27.9598 53.2402 27.4415 53.2192 26.9093C53.217 26.8534 53.2148 26.7975 53.2125 26.7417C53.1829 25.9982 53.1535 25.2603 53.1877 24.5404C53.2227 23.4945 53.211 22.4486 53.1993 21.4028C53.1935 20.8798 53.1877 20.3569 53.1877 19.834C53.2034 19.0548 53.235 18.2756 53.277 17.486C53.319 16.6963 53.319 15.9172 53.319 15.1275L53.2875 12.7586V11.5768V10.395C53.2906 10.167 53.1118 9.97741 52.883 9.96617H52.8515C51.6375 9.91953 50.4206 9.94799 49.205 9.97641C48.785 9.98624 48.3651 9.99606 47.9456 10.0028C47.4234 10.0111 46.9012 10.0238 46.3788 10.0364C45.2671 10.0633 44.1546 10.0902 43.0397 10.076C42.4383 10.0683 41.8369 10.0529 41.2357 10.0375C40.1988 10.0109 39.1626 9.9843 38.1286 9.99754C37.5155 10.0054 36.9017 10.011 36.2877 10.0167C35.2657 10.0261 34.2432 10.0355 33.2227 10.0551L33.1992 10.0555C31.5735 10.0867 29.9425 10.1181 28.3168 10.1701L25.8586 10.2329H23.4056C21.7721 10.1963 20.1385 10.1963 18.4997 10.1963C17.953 10.1963 17.407 10.1928 16.8613 10.1893C15.7711 10.1823 14.6824 10.1753 13.5938 10.1963C13.4885 10.1991 13.4047 10.2849 13.4047 10.3897C13.4067 10.5104 13.4088 10.6311 13.4108 10.7518C13.4354 12.1999 13.4601 13.648 13.431 15.0962L13.3049 19.8026C13.4605 21.7735 13.3928 23.7527 13.3255 25.7232C13.286 26.8792 13.2466 28.0322 13.2524 29.1788C13.261 30.876 13.2429 32.5842 13.2247 34.2973C13.2097 35.7143 13.1946 37.1347 13.1946 38.5551V39.6951C13.1946 39.8879 13.2103 40.082 13.226 40.2768C13.2418 40.4729 13.2576 40.6697 13.2576 40.8664C13.269 41.6483 13.2409 42.4302 13.1736 43.2092C13.1322 44.1608 13.1623 45.1123 13.1923 46.0639C13.2119 46.6811 13.2314 47.2984 13.2314 47.9156C13.2328 48.0127 13.2728 48.1053 13.3428 48.1729C13.4127 48.2406 13.5068 48.2778 13.6043 48.2764C15.6857 48.2632 17.7734 48.3044 19.8661 48.3458C21.0793 48.3697 22.2943 48.3937 23.5107 48.4072L25.9794 48.3497C26.2521 48.3497 26.5249 48.3462 26.798 48.3427C27.3454 48.3357 27.8944 48.3287 28.4481 48.3497C29.0019 48.3497 29.5581 48.3566 30.1137 48.3636C31.2232 48.3776 32.3303 48.3915 33.4118 48.3497L38.3176 48.2346L40.7601 48.1823C41.5795 48.1771 42.4199 48.1719 43.2656 48.2241C43.832 48.2592 44.3866 48.2473 44.931 48.2356C45.1994 48.2299 45.4654 48.2241 45.729 48.2241H48.1925ZM52.5687 42.9897V47.6334C52.3891 47.6339 52.2095 47.6344 52.0299 47.6348C50.5921 47.6385 49.1576 47.6421 47.7521 47.7118H45.3149C45.0365 47.7118 44.7592 47.7083 44.4838 47.7048C43.9381 47.6978 43.3995 47.6909 42.8724 47.7118L40.472 47.7641L38.019 47.7327L33.1131 47.6595C31.4743 47.6124 29.8671 47.6595 28.2598 47.717C27.1884 47.7554 26.1008 47.7426 25.0123 47.7298C24.4678 47.7234 23.9231 47.717 23.3801 47.717C22.2965 47.717 21.2124 47.7228 20.128 47.7286C18.0582 47.7397 15.9877 47.7508 13.9191 47.7215C13.9285 47.2121 13.9481 46.7028 13.9677 46.1934C14.0047 45.2301 14.0418 44.2668 14.0095 43.3034C13.9518 42.5239 13.936 41.7419 13.9623 40.9607C13.9716 40.8215 13.9849 40.6823 13.9982 40.5433C14.0223 40.2907 14.0463 40.0389 14.0463 39.7893V38.6179C14.0636 37.335 14.0666 36.0546 14.0697 34.774C14.0742 32.9333 14.0786 31.092 14.1251 29.2417C14.1941 27.6725 14.1625 26.1005 14.0306 24.5353C13.9579 23.7566 13.9403 22.9737 13.978 22.1925C13.9964 21.9222 14.0224 21.6506 14.0485 21.3782C14.0972 20.8706 14.1461 20.3602 14.1461 19.8498C14.1461 18.8736 14.0892 17.8975 14.0322 16.9213C13.9977 16.3287 13.9631 15.736 13.9413 15.1434C13.896 13.9137 13.9443 12.6841 13.9926 11.4545C14.0003 11.2561 14.0081 11.0578 14.0155 10.8594C17.148 10.8875 20.2851 10.8348 23.4222 10.7245C23.6955 10.7245 23.9688 10.7216 24.2419 10.7187C24.7876 10.7129 25.3325 10.7071 25.8751 10.7245L28.3333 10.8134C29.9669 10.8919 31.6057 10.9337 33.2392 10.9337C33.7835 10.9337 34.3278 10.932 34.8724 10.9302C35.962 10.9268 37.0524 10.9233 38.1451 10.9337C39.0659 10.9425 39.9867 10.8985 40.9066 10.8546C41.6239 10.8203 42.3406 10.786 43.0563 10.7768C43.9892 10.7649 44.9221 10.7802 45.856 10.7956C46.5573 10.8071 47.2593 10.8187 47.9622 10.8187C48.5088 10.8187 49.0549 10.8257 49.6006 10.8326C50.5558 10.8448 51.5098 10.857 52.4636 10.8318V11.5822V12.7431L52.4111 15.0649C52.3644 15.9662 52.4062 16.8914 52.448 17.8175C52.4768 18.4551 52.5056 19.0932 52.5056 19.7243C52.5056 20.2404 52.491 20.7537 52.4764 21.2667C52.4473 22.2923 52.4181 23.317 52.5056 24.3627C52.5377 25.1302 52.5166 25.899 52.4426 26.6636C52.4005 27.4335 52.4005 28.2051 52.4426 28.975C52.4555 29.2711 52.4697 29.569 52.4839 29.8678C52.5451 31.152 52.607 32.4511 52.5687 33.6814C52.5214 35.1979 52.5161 36.7406 52.5687 38.3356C52.6039 39.4041 52.5919 40.4538 52.5802 41.4832C52.5744 41.9904 52.5687 42.4926 52.5687 42.9897ZM52.4636 10.8318C52.5984 10.8282 52.7332 10.8239 52.8681 10.8187L52.4636 10.416V10.8318ZM14.0155 10.8594C14.0208 10.7186 14.0258 10.5777 14.0306 10.4369L13.6104 10.8553C13.7454 10.8568 13.8805 10.8582 14.0155 10.8594ZM13.9191 47.7215C13.8197 47.7201 13.7203 47.7186 13.6209 47.717L13.915 48.0099C13.916 47.9138 13.9174 47.8176 13.9191 47.7215Z" fill="#DEE4F5"/>
</g>
<rect x="18.2104" y="17.335" width="11.6344" height="12.8224" rx="5.81722" fill="#DEE4F5"/>
<path fill-rule="evenodd" clip-rule="evenodd" d="M19.529 28.4162C20.7132 29.6412 22.3438 30.3388 24.0515 30.3511C24.8931 30.3463 25.7247 30.1682 26.4939 29.8281C26.8768 29.6437 27.238 29.4174 27.5707 29.1535C27.7444 29.0366 27.9095 28.9073 28.0644 28.7666C28.2264 28.6341 28.3774 28.489 28.5161 28.3325C29.0832 27.7105 29.5048 26.9712 29.7505 26.1676L29.8976 25.5767C29.9095 25.4994 29.9229 25.4214 29.9365 25.343C29.9587 25.2143 29.9811 25.0843 29.9974 24.9544C30.0446 24.536 30.0446 24.1281 30.0446 23.7255V23.1136L30.0079 22.4913C29.9958 22.4227 29.9854 22.3535 29.9751 22.2845C29.9539 22.1431 29.9329 22.0025 29.8976 21.869C29.8849 21.8213 29.8726 21.7729 29.8602 21.7242C29.8211 21.5706 29.7814 21.4146 29.7295 21.2677C29.4597 20.4734 29.0248 19.7446 28.4531 19.1289C27.8741 18.5302 27.1813 18.0521 26.4151 17.7222C25.6542 17.3794 24.8289 17.2012 23.9937 17.1992C23.1584 17.2153 22.3342 17.3929 21.567 17.7222C20.8035 18.0618 20.1199 18.557 19.5605 19.1759C18.9849 19.7867 18.5494 20.5147 18.2841 21.3095L18.1161 21.9161C18.1052 21.986 18.0901 22.0566 18.0749 22.1276C18.0457 22.2635 18.0163 22.401 18.0163 22.5384C17.9795 22.962 17.9795 23.3699 17.9795 23.7725V24.3687L18.0058 25.0014C18.0162 25.0705 18.0243 25.1395 18.0324 25.2084C18.0488 25.3481 18.0651 25.4871 18.1003 25.6237C18.1185 25.6942 18.1353 25.7653 18.1523 25.8366C18.1844 25.9716 18.2166 26.1073 18.2579 26.2408C18.5168 27.0497 18.9507 27.7922 19.529 28.4162ZM28.1801 28.0343C27.1523 29.2426 25.642 29.939 24.0516 29.9378V29.9483C22.4474 29.9952 20.9062 29.3258 19.8495 28.1232C18.7384 26.9549 18.1938 25.3625 18.3578 23.7619C18.3683 23.354 18.3893 22.9514 18.4313 22.5644C18.4397 22.487 18.4549 22.4096 18.47 22.3322C18.4927 22.2161 18.5154 22.1 18.5154 21.9839C18.5584 21.7858 18.6128 21.5903 18.6782 21.3983C18.9603 20.6734 19.3556 19.9975 19.8495 19.3954C20.3692 18.8098 21.0109 18.344 21.7299 18.0305C22.0841 17.8701 22.4537 17.7457 22.833 17.6593C23.0257 17.6212 23.2203 17.5932 23.416 17.5756H23.9991C24.7838 17.5587 25.564 17.6974 26.2944 17.9835C27.0118 18.3066 27.6513 18.7791 28.1696 19.3693C28.7089 19.9432 29.1205 20.6239 29.3777 21.3669C29.4407 21.5499 29.5037 21.7382 29.5405 21.9316C29.5615 22.0422 29.5757 22.1528 29.5898 22.2633C29.6004 22.3463 29.6111 22.4292 29.6246 22.5121V23.0978V23.7096C29.6684 24.4973 29.5742 25.2865 29.3462 26.0419C29.0936 26.7762 28.6972 27.4534 28.1801 28.0343Z" fill="#DEE4F5"/>
<rect x="24.0254" y="23.7461" width="15.1957" height="16.7444" fill="white"/>
<path fill-rule="evenodd" clip-rule="evenodd" d="M38.1088 40.63C38.539 40.6335 38.9689 40.637 39.3942 40.637C39.3942 39.9258 39.3942 39.2407 39.3364 38.4982L39.3101 37.4209L39.3364 36.375C39.3628 35.9613 39.3539 35.5208 39.345 35.0754C39.3397 34.8115 39.3344 34.546 39.3364 34.2833C39.3389 33.9479 39.352 33.6172 39.3652 33.2873C39.3797 32.9229 39.3942 32.5594 39.3942 32.1915L39.4099 31.0411L39.4467 29.9952C39.4099 29.2997 39.4099 28.5781 39.4467 27.9035C39.4835 27.2289 39.494 26.4968 39.4467 25.8117C39.4221 25.4558 39.433 25.0956 39.444 24.7326C39.4541 24.3971 39.4643 24.0591 39.4467 23.72C39.441 23.6007 39.3407 23.5078 39.2208 23.5108C39.0689 23.5158 38.917 23.5211 38.7651 23.5263C37.6511 23.5648 36.5372 23.6033 35.4232 23.5526H34.4725H33.5218H31.6204C31.1384 23.5566 30.6556 23.5727 30.1727 23.5889C29.3873 23.6151 28.6014 23.6413 27.8175 23.6154H24.0199C23.9659 23.618 23.9227 23.661 23.9201 23.7148C23.9201 23.9464 23.9218 24.178 23.9236 24.4099C23.9271 24.8741 23.9306 25.3391 23.9201 25.8065C23.9148 26.0416 23.9077 26.2762 23.9007 26.5103C23.8867 26.974 23.8728 27.4361 23.8728 27.8982C23.9043 28.2434 23.9043 28.5937 23.9043 28.9441L23.8571 29.99V32.0817C23.8571 32.5473 23.8524 33.0129 23.8477 33.4784C23.8384 34.4086 23.829 35.3381 23.8571 36.2652C23.8991 36.7291 23.8851 37.1953 23.871 37.6607C23.864 37.8931 23.8571 38.1253 23.8571 38.357V40.4487C23.8571 40.5527 23.9417 40.637 24.0461 40.637C24.5306 40.637 25.0174 40.6513 25.5047 40.6656C26.3012 40.689 27.0991 40.7125 27.891 40.6736C28.5213 40.637 29.1622 40.6265 29.8135 40.6736C30.2481 40.705 30.6733 40.6945 31.097 40.684C31.3083 40.6788 31.5192 40.6736 31.7307 40.6736C31.9304 40.6678 32.1294 40.6615 32.328 40.6553C33.3933 40.6217 34.4486 40.5885 35.5598 40.637C36.3864 40.616 37.248 40.623 38.1088 40.63ZM39.0954 38.2524V40.3442H39.0744C38.7788 40.3417 38.4855 40.3427 38.193 40.3437C37.2435 40.347 36.3026 40.3503 35.3188 40.2344C34.507 40.2796 33.6648 40.2646 32.8203 40.2495C32.3972 40.2419 31.9735 40.2344 31.5527 40.2344C31.3422 40.2344 31.1317 40.2303 30.9216 40.2262C30.5026 40.2181 30.0851 40.21 29.6723 40.2344C29.0525 40.271 28.4274 40.271 27.7971 40.271H24.1586C24.1601 40.1115 24.1601 39.9519 24.16 39.7921C24.1599 39.2979 24.1597 38.8026 24.2043 38.3099C24.2373 37.9459 24.2228 37.5818 24.2083 37.217C24.1951 36.8848 24.1818 36.5521 24.2043 36.2182C24.2422 35.3835 24.2459 34.5469 24.2497 33.7096C24.2523 33.1515 24.2548 32.5931 24.2674 32.0347C24.2674 31.8008 24.2744 31.5674 24.2814 31.3344C24.2954 30.8695 24.3094 30.4063 24.2674 29.943C24.2592 29.8344 24.2491 29.7258 24.2389 29.6174C24.2164 29.3759 24.1938 29.1353 24.1938 28.8971C24.2037 28.5473 24.2318 28.1982 24.2779 27.8512C24.3058 27.3227 24.267 26.7912 24.2284 26.2612C24.2161 26.0937 24.2039 25.9265 24.1938 25.7595C24.1682 25.3343 24.1857 24.9071 24.2031 24.4804C24.2114 24.2789 24.2196 24.0775 24.2233 23.8764C25.4216 23.9028 26.6199 23.8986 27.8181 23.8194C28.5881 23.7685 29.36 23.8047 30.1315 23.8408C30.6284 23.8641 31.1251 23.8874 31.621 23.8874H33.5172H34.4679L35.4186 23.8508C36.2625 23.795 37.1064 23.8136 37.9503 23.8322C38.2993 23.8399 38.6483 23.8476 38.9972 23.85C38.9841 24.2462 38.9909 24.6345 38.9978 25.0272C39.002 25.2602 39.0061 25.4947 39.0061 25.7333C39.0061 25.972 39.0008 26.2071 38.9955 26.4406C38.985 26.9031 38.9747 27.3595 39.0061 27.8251C39.0439 28.5218 39.0439 29.2201 39.0061 29.9168C39.0105 30.0634 39.0178 30.2108 39.0252 30.3588C39.0351 30.5595 39.0451 30.7611 39.0481 30.9627C39.0508 31.1447 39.0337 31.3183 39.0166 31.4915C39.0008 31.6516 38.9851 31.8114 38.9851 31.9772L39.0586 34.0689C39.0586 34.3146 39.0532 34.5513 39.0479 34.7847C39.0375 35.2419 39.0273 35.6864 39.0586 36.1607L39.0954 37.2066V38.2524ZM38.9972 23.85C39.0702 23.8505 39.1432 23.8508 39.2162 23.8508L39.0061 23.6416C39.0025 23.7113 38.9995 23.7808 38.9972 23.85ZM24.2233 23.8764C24.2246 23.8068 24.2254 23.7373 24.2254 23.6677L24.0205 23.8717C24.0881 23.8734 24.1557 23.875 24.2233 23.8764ZM24.1586 40.271H24.0205L24.1571 40.4017C24.1577 40.3581 24.1582 40.3146 24.1586 40.271Z" fill="white"/>
<path d="M42.0201 31.0829L36.8936 41.0187L48.2654 40.6526L42.3247 31.0672C42.2916 31.0131 42.2313 30.9813 42.1677 30.9846C42.1041 30.9879 42.0474 31.0256 42.0201 31.0829Z" fill="#DEE4F5"/>
<path fill-rule="evenodd" clip-rule="evenodd" d="M42.1255 30.774C41.9959 30.7908 41.8834 30.8714 41.8261 30.9884C41.7005 31.2403 41.5723 31.4922 41.4442 31.7442C41.1492 32.3241 40.8538 32.9048 40.5865 33.4881L39.9195 34.7274L39.3049 35.9772C39.1347 36.3039 38.9749 36.6338 38.8158 36.9622C38.5674 37.4749 38.3208 37.984 38.039 38.4716C37.95 38.6364 37.8549 38.7985 37.7597 38.9609C37.6191 39.2006 37.4783 39.4407 37.3562 39.6901C37.1514 40.1084 36.915 40.5111 36.6786 40.9138C36.6709 40.9482 36.6709 40.9839 36.6786 41.0183C36.6758 41.078 36.6969 41.1363 36.7373 41.1805C36.7777 41.2246 36.8341 41.251 36.894 41.2537C37.4519 41.2813 38.0098 41.2477 38.5666 41.2141C38.9587 41.1905 39.3502 41.1669 39.7409 41.1648C40.2376 41.162 40.7343 41.1448 41.2317 41.1276C41.6812 41.1121 42.1313 41.0965 42.5825 41.0916C43.1735 41.0851 43.7625 41.0422 44.3507 40.9994C44.7087 40.9733 45.0664 40.9473 45.4242 40.9294C45.5815 40.9294 45.7395 40.9341 45.8977 40.9387C46.2146 40.948 46.5323 40.9574 46.8476 40.9294L48.2711 40.8615C48.3068 40.8615 48.3416 40.8505 48.3709 40.8301C48.4181 40.8021 48.4517 40.7559 48.4636 40.7024C48.4755 40.649 48.4648 40.593 48.4339 40.5477L47.646 39.3188C47.3974 38.9179 47.1505 38.4995 46.9054 38.0638L45.4031 35.5641C45.172 35.151 44.9199 34.7327 44.6468 34.3195C44.5739 34.2093 44.5011 34.1006 44.4286 33.9925C44.2294 33.6953 44.0333 33.4026 43.8484 33.0959L43.071 31.8617L42.6823 31.2447C42.677 31.2357 42.6719 31.227 42.6668 31.2186C42.6072 31.1178 42.5643 31.0454 42.4722 30.9152C42.3905 30.8096 42.2582 30.7557 42.1255 30.774ZM42.1721 31.219C42.1793 31.205 42.1866 31.1911 42.1939 31.1771C42.1992 31.1771 42.1414 31.1719 42.1414 31.1719L42.1721 31.219ZM47.9409 40.4934L46.5273 38.2838C46.282 37.898 46.0517 37.5077 45.8217 37.1181C45.5592 36.6733 45.2973 36.2295 45.0145 35.7946C44.9287 35.6569 44.8418 35.5198 44.7548 35.3827C44.5809 35.1084 44.407 34.8342 44.2424 34.5553C44.1662 34.4262 44.0916 34.2961 44.0169 34.166C43.8494 33.8743 43.6818 33.5823 43.4965 33.3002L42.7192 32.0713L42.3252 31.4543L42.1721 31.219C42.0717 31.4116 41.972 31.6045 41.8722 31.7974C41.5511 32.4181 41.2301 33.0388 40.8913 33.6506L40.303 34.9213L39.6727 36.1659C39.3201 36.8241 38.9734 37.4839 38.6269 38.1433C38.1541 39.0431 37.6817 39.9422 37.1951 40.8357C37.0877 40.8357 36.9804 40.8357 36.8731 40.8357H36.873L37.0464 41.1077C37.0961 41.0171 37.1457 40.9264 37.1951 40.8357C38.0343 40.8351 38.8771 40.8304 39.7199 40.7887C40.1477 40.7675 40.5744 40.7654 41.0005 40.7633C41.5214 40.7607 42.0415 40.7581 42.5616 40.7207C43.1355 40.6794 43.7114 40.6709 44.2868 40.6624C44.6593 40.6569 45.0317 40.6514 45.4032 40.637C45.876 40.6187 46.35 40.5886 46.8241 40.5586C47.1966 40.5349 47.569 40.5113 47.9409 40.4934ZM47.9409 40.4934L48.103 40.7468L48.2449 40.4801C48.1436 40.4841 48.0423 40.4885 47.9409 40.4934Z" fill="#DEE4F5"/>
<path d="M55.5196 61.7319C61.1822 61.7319 65.7726 56.937 65.7726 51.0222C65.7726 45.1074 61.1822 40.3125 55.5196 40.3125C49.857 40.3125 45.2666 45.1074 45.2666 51.0222C45.2666 56.937 49.857 61.7319 55.5196 61.7319Z" fill="rgb(195, 41, 238)" stroke="#DEE4F5" stroke-width="1.5" stroke-linecap="round" stroke-linejoin="round"/>
<path d="M55.52 45.667V56.3767" stroke="white" stroke-width="2.25" stroke-linecap="round" stroke-linejoin="round"/>
<path d="M59.5487 51.0219L55.5199 45.667L51.4912 51.0219" stroke="white" stroke-width="2.25" stroke-linecap="round" stroke-linejoin="round"/>
</svg>